<svg xmlns="http://www.w3.org/2000/svg" xmlns:xlink="http://www.w3.org/1999/xlink" width="2000" zoomAndPan="magnify" viewBox="0 0 1500 1499.999933" height="2000" preserveAspectRatio="xMidYMid meet" version="1.0"><defs><g/><clipPath id="32ce7e1c1d"><rect x="0" width="201" y="0" height="37"/></clipPath></defs><g fill="#ecf2fe" fill-opacity="1"><g transform="translate(195.689635, 706.890495)"><g><path d="M 82.347656 0 L 106.332031 0 L 67 -111.929688 L 39.65625 -111.929688 L 0.480469 0 L 24.304688 0 L 31.019531 -20.148438 L 75.632812 -20.148438 Z M 38.054688 -40.773438 L 53.40625 -86.507812 L 68.757812 -40.773438 Z M 38.054688 -40.773438 "/></g></g></g><g fill="#ecf2fe" fill-opacity="1"><g transform="translate(301.697049, 706.890495)"><g><path d="M 62.199219 -79.949219 L 62.199219 -36.777344 C 62.199219 -22.867188 54.6875 -16.949219 44.613281 -16.949219 C 35.339844 -16.949219 28.78125 -22.546875 28.78125 -33.417969 L 28.78125 -79.949219 L 8.15625 -79.949219 L 8.15625 -30.859375 C 8.15625 -9.59375 21.425781 2.238281 38.375 2.238281 C 49.089844 2.238281 57.402344 -1.757812 62.199219 -8.953125 L 62.199219 0 L 82.828125 0 L 82.828125 -79.949219 Z M 62.199219 -79.949219 "/></g></g></g><g fill="#ecf2fe" fill-opacity="1"><g transform="translate(393.953907, 706.890495)"><g><path d="M 55.164062 -60.121094 L 55.164062 -79.949219 L 37.097656 -79.949219 L 37.097656 -102.335938 L 16.46875 -96.101562 L 16.46875 -79.949219 L 2.558594 -79.949219 L 2.558594 -60.121094 L 16.46875 -60.121094 L 16.46875 -26.863281 C 16.46875 -5.277344 26.222656 3.199219 55.164062 0 L 55.164062 -18.707031 C 43.332031 -18.070312 37.097656 -18.230469 37.097656 -26.863281 L 37.097656 -60.121094 Z M 55.164062 -60.121094 "/></g></g></g><g fill="#ecf2fe" fill-opacity="1"><g transform="translate(451.19448, 706.890495)"><g><path d="M 55.164062 -60.121094 L 55.164062 -79.949219 L 37.097656 -79.949219 L 37.097656 -102.335938 L 16.46875 -96.101562 L 16.46875 -79.949219 L 2.558594 -79.949219 L 2.558594 -60.121094 L 16.46875 -60.121094 L 16.46875 -26.863281 C 16.46875 -5.277344 26.222656 3.199219 55.164062 0 L 55.164062 -18.707031 C 43.332031 -18.070312 37.097656 -18.230469 37.097656 -26.863281 L 37.097656 -60.121094 Z M 55.164062 -60.121094 "/></g></g></g><g fill="#ecf2fe" fill-opacity="1"><g transform="translate(509.074663, 706.890495)"><g><path d="M 47.492188 2.238281 C 70.996094 2.238281 89.863281 -16.148438 89.863281 -39.976562 C 89.863281 -63.800781 70.996094 -82.1875 47.492188 -82.1875 C 23.984375 -82.1875 5.277344 -63.800781 5.277344 -39.976562 C 5.277344 -16.148438 23.984375 2.238281 47.492188 2.238281 Z M 47.492188 -17.910156 C 35.339844 -17.910156 25.902344 -27.023438 25.902344 -39.976562 C 25.902344 -52.925781 35.339844 -62.042969 47.492188 -62.042969 C 59.800781 -62.042969 69.238281 -52.925781 69.238281 -39.976562 C 69.238281 -27.023438 59.800781 -17.910156 47.492188 -17.910156 Z M 47.492188 -17.910156 "/></g></g></g><g fill="#ecf2fe" fill-opacity="1"><g transform="translate(604.049676, 706.890495)"><g><path d="M 55.964844 -82.1875 C 44.292969 -82.1875 35.816406 -77.871094 30.0625 -70.515625 L 30.0625 -79.949219 L 9.433594 -79.949219 L 9.433594 31.980469 L 30.0625 31.980469 L 30.0625 -9.433594 C 35.816406 -2.078125 44.292969 2.238281 55.964844 2.238281 C 77.390625 2.238281 94.980469 -16.148438 94.980469 -39.976562 C 94.980469 -63.800781 77.390625 -82.1875 55.964844 -82.1875 Z M 52.128906 -17.429688 C 39.496094 -17.429688 30.0625 -26.542969 30.0625 -39.976562 C 30.0625 -53.40625 39.496094 -62.519531 52.128906 -62.519531 C 64.917969 -62.519531 74.351562 -53.40625 74.351562 -39.976562 C 74.351562 -26.542969 64.917969 -17.429688 52.128906 -17.429688 Z M 52.128906 -17.429688 "/></g></g></g><g fill="#ecf2fe" fill-opacity="1"><g transform="translate(704.141159, 706.890495)"><g><path d="M 62.199219 -79.949219 L 62.199219 -36.777344 C 62.199219 -22.867188 54.6875 -16.949219 44.613281 -16.949219 C 35.339844 -16.949219 28.78125 -22.546875 28.78125 -33.417969 L 28.78125 -79.949219 L 8.15625 -79.949219 L 8.15625 -30.859375 C 8.15625 -9.59375 21.425781 2.238281 38.375 2.238281 C 49.089844 2.238281 57.402344 -1.757812 62.199219 -8.953125 L 62.199219 0 L 82.828125 0 L 82.828125 -79.949219 Z M 62.199219 -79.949219 "/></g></g></g><g fill="#ecf2fe" fill-opacity="1"><g transform="translate(795.75843, 706.890495)"><g><path d="M 28.460938 -57.246094 C 28.460938 -61.5625 32.621094 -63.800781 37.738281 -63.800781 C 43.652344 -63.800781 48.128906 -60.761719 50.527344 -55.644531 L 68.117188 -65.238281 C 61.882812 -76.273438 50.6875 -82.1875 37.738281 -82.1875 C 21.265625 -82.1875 7.355469 -73.074219 7.355469 -56.765625 C 7.355469 -28.621094 48.609375 -35.019531 48.609375 -23.34375 C 48.609375 -18.707031 44.132812 -16.46875 37.578125 -16.46875 C 29.582031 -16.46875 24.144531 -20.308594 21.90625 -26.863281 L 3.996094 -16.789062 C 9.753906 -4.476562 21.585938 2.238281 37.578125 2.238281 C 54.6875 2.238281 69.714844 -6.078125 69.714844 -23.34375 C 69.714844 -52.765625 28.460938 -45.410156 28.460938 -57.246094 Z M 28.460938 -57.246094 "/></g></g></g><g fill="#3241e4" fill-opacity="1"><g transform="translate(868.357549, 706.890495)"><g><path d="M 21.425781 2.078125 C 28.941406 2.078125 35.019531 -3.996094 35.019531 -11.511719 C 35.019531 -19.027344 28.941406 -25.105469 21.425781 -25.105469 C 13.910156 -25.105469 7.835938 -19.027344 7.835938 -11.511719 C 7.835938 -3.996094 13.910156 2.078125 21.425781 2.078125 Z M 21.425781 2.078125 "/></g></g></g><g fill="#ecf2fe" fill-opacity="1"><g transform="translate(911.213011, 706.890495)"><g><path d="M 54.6875 -81.707031 C 39.175781 -81.707031 26.863281 -73.714844 20.308594 -61.402344 L 20.308594 -111.929688 L 12.3125 -111.929688 L 12.3125 0 L 20.308594 0 L 20.308594 -18.546875 C 26.863281 -6.234375 39.175781 1.757812 54.6875 1.757812 C 77.550781 1.757812 96.101562 -16.308594 96.101562 -39.976562 C 96.101562 -63.640625 77.550781 -81.707031 54.6875 -81.707031 Z M 54.207031 -5.917969 C 35.179688 -5.917969 20.308594 -20.945312 20.308594 -39.976562 C 20.308594 -59.003906 35.179688 -74.035156 54.207031 -74.035156 C 73.234375 -74.035156 88.105469 -59.003906 88.105469 -39.976562 C 88.105469 -20.945312 73.234375 -5.917969 54.207031 -5.917969 Z M 54.207031 -5.917969 "/></g></g></g><g fill="#ecf2fe" fill-opacity="1"><g transform="translate(1014.342431, 706.890495)"><g><path d="M 12.3125 0 L 20.308594 0 L 20.308594 -116.726562 L 12.3125 -116.726562 Z M 12.3125 0 "/></g></g></g><g fill="#ecf2fe" fill-opacity="1"><g transform="translate(1046.960103, 706.890495)"><g><path d="M 48.929688 1.757812 C 72.113281 1.757812 90.824219 -16.308594 90.824219 -39.976562 C 90.824219 -63.640625 72.113281 -81.707031 48.929688 -81.707031 C 25.585938 -81.707031 6.875 -63.640625 6.875 -39.976562 C 6.875 -16.308594 25.585938 1.757812 48.929688 1.757812 Z M 48.929688 -5.917969 C 29.902344 -5.917969 15.03125 -20.945312 15.03125 -39.976562 C 15.03125 -59.003906 29.902344 -74.035156 48.929688 -74.035156 C 67.957031 -74.035156 82.667969 -59.003906 82.667969 -39.976562 C 82.667969 -20.945312 67.957031 -5.917969 48.929688 -5.917969 Z M 48.929688 -5.917969 "/></g></g></g><g fill="#ecf2fe" fill-opacity="1"><g transform="translate(1144.653237, 706.890495)"><g><path d="M 83.308594 -79.949219 L 83.308594 -61.402344 C 76.753906 -73.714844 64.441406 -81.707031 48.929688 -81.707031 C 26.0625 -81.707031 7.515625 -63.640625 7.515625 -39.976562 C 7.515625 -16.308594 26.0625 1.757812 48.929688 1.757812 C 64.441406 1.757812 76.753906 -6.234375 83.308594 -18.546875 L 83.308594 -3.835938 C 83.308594 14.390625 71.476562 26.0625 51.488281 26.0625 C 33.898438 26.0625 24.945312 19.027344 20.785156 10.554688 L 13.75 14.550781 C 19.507812 26.222656 32.78125 33.738281 51.488281 33.738281 C 73.554688 33.738281 91.304688 20.148438 91.304688 -3.835938 L 91.304688 -79.949219 Z M 49.410156 -5.917969 C 30.382812 -5.917969 15.511719 -20.945312 15.511719 -39.976562 C 15.511719 -59.003906 30.382812 -74.035156 49.410156 -74.035156 C 68.4375 -74.035156 83.308594 -59.003906 83.308594 -39.976562 C 83.308594 -20.945312 68.4375 -5.917969 49.410156 -5.917969 Z M 49.410156 -5.917969 "/></g></g></g><path stroke-linecap="butt" transform="matrix(0.75, -0.000000000000000558, 0.000000000000000558, 0.75, 195.689635, 719.238542)" fill="none" stroke-linejoin="miter" d="M 0.00236181 8.499653 L 481.783653 8.499653 " stroke="#ecf2fe" stroke-width="17" stroke-opacity="1" stroke-miterlimit="4"/><g transform="matrix(1, 0, 0, 1, 642, 707)"><g clip-path="url(#32ce7e1c1d)"><g fill="#ecf2fe" fill-opacity="1"><g transform="translate(0.325783, 28.43166)"><g><path d="M 11.898438 0.417969 C 15.761719 0.417969 19.148438 -1.527344 20.917969 -4.523438 L 17.351562 -6.59375 C 16.363281 -4.765625 14.296875 -3.625 11.898438 -3.625 C 7.792969 -3.625 5.09375 -6.472656 5.09375 -10.488281 C 5.09375 -14.535156 7.792969 -17.382812 11.898438 -17.382812 C 14.296875 -17.382812 16.332031 -16.242188 17.351562 -14.386719 L 20.917969 -16.453125 C 19.121094 -19.449219 15.734375 -21.398438 11.898438 -21.398438 C 5.542969 -21.398438 0.988281 -16.632812 0.988281 -10.488281 C 0.988281 -4.375 5.542969 0.417969 11.898438 0.417969 Z M 11.898438 0.417969 "/></g></g></g><g fill="#ecf2fe" fill-opacity="1"><g transform="translate(21.631102, 28.43166)"><g><path d="M 11.867188 0.417969 C 17.921875 0.417969 22.777344 -4.375 22.777344 -10.488281 C 22.777344 -16.632812 17.921875 -21.398438 11.867188 -21.398438 C 5.8125 -21.398438 0.988281 -16.632812 0.988281 -10.488281 C 0.988281 -4.375 5.8125 0.417969 11.867188 0.417969 Z M 11.867188 -3.625 C 8.0625 -3.625 5.09375 -6.472656 5.09375 -10.488281 C 5.09375 -14.535156 8.0625 -17.382812 11.867188 -17.382812 C 15.671875 -17.382812 18.640625 -14.535156 18.640625 -10.488281 C 18.640625 -6.472656 15.671875 -3.625 11.867188 -3.625 Z M 11.867188 -3.625 "/></g></g></g><g fill="#ecf2fe" fill-opacity="1"><g transform="translate(45.363663, 28.43166)"><g><path d="M 14.085938 -20.976562 L 14.085938 -8.179688 L 5.09375 -20.976562 L 1.949219 -20.976562 L 1.949219 0 L 6.082031 0 L 6.082031 -12.828125 L 15.074219 0 L 18.222656 0 L 18.222656 -20.976562 Z M 14.085938 -20.976562 "/></g></g></g><g fill="#ecf2fe" fill-opacity="1"><g transform="translate(65.200691, 28.43166)"><g><path d="M 9.109375 0.417969 C 13.574219 0.417969 16.722656 -1.976562 16.722656 -5.902344 C 16.722656 -10.1875 13.1875 -11.296875 9.859375 -12.347656 C 6.683594 -13.304688 5.875 -13.996094 5.875 -15.285156 C 5.875 -16.484375 6.894531 -17.382812 8.632812 -17.382812 C 10.757812 -17.382812 11.898438 -16.273438 12.648438 -14.683594 L 16.125 -16.691406 C 14.714844 -19.628906 12.078125 -21.398438 8.632812 -21.398438 C 5.035156 -21.398438 1.738281 -19.121094 1.738281 -15.164062 C 1.738281 -11.179688 4.855469 -9.828125 8.0625 -8.902344 C 11.179688 -8 12.585938 -7.402344 12.585938 -5.84375 C 12.585938 -4.675781 11.71875 -3.625 9.230469 -3.625 C 6.625 -3.625 5.15625 -4.886719 4.40625 -6.832031 L 0.867188 -4.765625 C 2.007812 -1.648438 4.824219 0.417969 9.109375 0.417969 Z M 9.109375 0.417969 "/></g></g></g><g fill="#ecf2fe" fill-opacity="1"><g transform="translate(82.670494, 28.43166)"><g><path d="M 9.769531 0.417969 C 14.386719 0.417969 17.800781 -2.335938 17.800781 -6.863281 L 17.800781 -20.976562 L 13.664062 -20.976562 L 13.664062 -7.191406 C 13.664062 -5.15625 12.585938 -3.625 9.769531 -3.625 C 6.953125 -3.625 5.875 -5.15625 5.875 -7.191406 L 5.875 -20.976562 L 1.769531 -20.976562 L 1.769531 -6.863281 C 1.769531 -2.335938 5.183594 0.417969 9.769531 0.417969 Z M 9.769531 0.417969 "/></g></g></g><g fill="#ecf2fe" fill-opacity="1"><g transform="translate(102.23787, 28.43166)"><g><path d="M 6.082031 -3.957031 L 6.082031 -20.976562 L 1.949219 -20.976562 L 1.949219 0 L 14.085938 0 L 14.085938 -3.957031 Z M 6.082031 -3.957031 "/></g></g></g><g fill="#ecf2fe" fill-opacity="1"><g transform="translate(114.583366, 28.43166)"><g><path d="M 15.824219 -20.976562 L 0.390625 -20.976562 L 0.390625 -17.023438 L 6.023438 -17.023438 L 6.023438 0 L 10.160156 0 L 10.160156 -17.023438 L 15.824219 -17.023438 Z M 15.824219 -20.976562 "/></g></g></g><g fill="#ecf2fe" fill-opacity="1"><g transform="translate(129.565911, 28.43166)"><g><path d="M 11.867188 0.417969 C 17.921875 0.417969 22.777344 -4.375 22.777344 -10.488281 C 22.777344 -16.632812 17.921875 -21.398438 11.867188 -21.398438 C 5.8125 -21.398438 0.988281 -16.632812 0.988281 -10.488281 C 0.988281 -4.375 5.8125 0.417969 11.867188 0.417969 Z M 11.867188 -3.625 C 8.0625 -3.625 5.09375 -6.472656 5.09375 -10.488281 C 5.09375 -14.535156 8.0625 -17.382812 11.867188 -17.382812 C 15.671875 -17.382812 18.640625 -14.535156 18.640625 -10.488281 C 18.640625 -6.472656 15.671875 -3.625 11.867188 -3.625 Z M 11.867188 -3.625 "/></g></g></g><g fill="#ecf2fe" fill-opacity="1"><g transform="translate(153.298478, 28.43166)"><g><path d="M 13.457031 0 L 17.921875 0 L 13.277344 -7.910156 C 15.671875 -9.019531 17.320312 -11.386719 17.320312 -14.023438 C 17.320312 -17.859375 14.207031 -20.976562 10.339844 -20.976562 L 1.949219 -20.976562 L 1.949219 0 L 6.082031 0 L 6.082031 -7.28125 L 9.230469 -7.28125 Z M 6.082031 -17.113281 L 10.339844 -17.113281 C 11.898438 -17.113281 13.1875 -15.761719 13.1875 -14.023438 C 13.1875 -12.289062 11.898438 -10.910156 10.339844 -10.910156 L 6.082031 -10.910156 Z M 6.082031 -17.113281 "/></g></g></g><g fill="#ecf2fe" fill-opacity="1"><g transform="translate(171.697208, 28.43166)"><g><path d="M 1.949219 -20.976562 L 1.949219 0 L 6.082031 0 L 6.082031 -20.976562 Z M 1.949219 -20.976562 "/></g></g></g><g fill="#ecf2fe" fill-opacity="1"><g transform="translate(179.72792, 28.43166)"><g><path d="M 15.433594 0 L 19.929688 0 L 12.558594 -20.976562 L 7.433594 -20.976562 L 0.0898438 0 L 4.554688 0 L 5.8125 -3.777344 L 14.175781 -3.777344 Z M 7.132812 -7.640625 L 10.007812 -16.214844 L 12.886719 -7.640625 Z M 7.132812 -7.640625 "/></g></g></g></g></g></svg>