<svg xmlns="http://www.w3.org/2000/svg" xmlns:xlink="http://www.w3.org/1999/xlink" width="1366" zoomAndPan="magnify" viewBox="0 0 1024.5 576" height="768" preserveAspectRatio="xMidYMid meet" version="1.0"><defs><clipPath id="92a0de1eec"><path d="M 866.894531 139.75 L 921.890625 139.75 L 921.890625 194.742188 L 866.894531 194.742188 Z M 866.894531 139.75 " clip-rule="nonzero"/></clipPath><clipPath id="ba4d29fd99"><path d="M 894.371094 194.742188 C 879.242188 194.742188 866.894531 182.394531 866.894531 167.226562 C 866.894531 152.097656 879.242188 139.75 894.371094 139.75 C 909.542969 139.75 921.847656 152.097656 921.847656 167.226562 C 921.890625 182.394531 909.542969 194.742188 894.371094 194.742188 Z M 894.371094 154.878906 C 887.585938 154.878906 882.023438 160.4375 882.023438 167.226562 C 882.023438 174.015625 887.585938 179.574219 894.371094 179.574219 C 901.160156 179.574219 906.71875 174.015625 906.71875 167.226562 C 906.71875 160.4375 901.199219 154.878906 894.371094 154.878906 Z M 894.371094 154.878906 " clip-rule="nonzero"/></clipPath><clipPath id="31b1846d2e"><path d="M 0.894531 0.75 L 55.890625 0.75 L 55.890625 55.742188 L 0.894531 55.742188 Z M 0.894531 0.75 " clip-rule="nonzero"/></clipPath><clipPath id="49871ed923"><path d="M 28.371094 55.742188 C 13.242188 55.742188 0.894531 43.394531 0.894531 28.226562 C 0.894531 13.097656 13.242188 0.75 28.371094 0.75 C 43.542969 0.75 55.847656 13.097656 55.847656 28.226562 C 55.890625 43.394531 43.542969 55.742188 28.371094 55.742188 Z M 28.371094 15.878906 C 21.585938 15.878906 16.023438 21.4375 16.023438 28.226562 C 16.023438 35.015625 21.585938 40.574219 28.371094 40.574219 C 35.160156 40.574219 40.71875 35.015625 40.71875 28.226562 C 40.71875 21.4375 35.199219 15.878906 28.371094 15.878906 Z M 28.371094 15.878906 " clip-rule="nonzero"/></clipPath><clipPath id="fe34f54294"><rect x="0" width="56" y="0" height="56"/></clipPath><clipPath id="c253fe22da"><path d="M 383.816406 60.039062 L 417.84375 60.039062 L 417.84375 94.066406 L 383.816406 94.066406 Z M 383.816406 60.039062 " clip-rule="nonzero"/></clipPath><clipPath id="6bc49d408e"><path d="M 383.816406 77.050781 C 383.816406 86.449219 391.433594 94.066406 400.832031 94.066406 C 410.226562 94.066406 417.84375 86.449219 417.84375 77.050781 C 417.84375 67.65625 410.226562 60.039062 400.832031 60.039062 C 391.433594 60.039062 383.816406 67.65625 383.816406 77.050781 Z M 383.816406 77.050781 " clip-rule="nonzero"/></clipPath><clipPath id="b99e6c577d"><path d="M 0.816406 0.0390625 L 34.84375 0.0390625 L 34.84375 34.066406 L 0.816406 34.066406 Z M 0.816406 0.0390625 " clip-rule="nonzero"/></clipPath><clipPath id="ed9501f0b0"><path d="M 0.816406 17.050781 C 0.816406 26.449219 8.433594 34.066406 17.832031 34.066406 C 27.226562 34.066406 34.84375 26.449219 34.84375 17.050781 C 34.84375 7.65625 27.226562 0.0390625 17.832031 0.0390625 C 8.433594 0.0390625 0.816406 7.65625 0.816406 17.050781 Z M 0.816406 17.050781 " clip-rule="nonzero"/></clipPath><clipPath id="81eb3f80be"><rect x="0" width="35" y="0" height="35"/></clipPath><clipPath id="3283370c4a"><path d="M 332.910156 57.710938 L 596.863281 57.710938 L 596.863281 321.664062 L 332.910156 321.664062 Z M 332.910156 57.710938 " clip-rule="nonzero"/></clipPath><clipPath id="0c309e9ec1"><path d="M 332.910156 189.6875 C 332.910156 262.578125 391.996094 321.664062 464.886719 321.664062 C 537.773438 321.664062 596.863281 262.578125 596.863281 189.6875 C 596.863281 116.800781 537.773438 57.710938 464.886719 57.710938 C 391.996094 57.710938 332.910156 116.800781 332.910156 189.6875 Z M 332.910156 189.6875 " clip-rule="nonzero"/></clipPath><clipPath id="cf581c1069"><path d="M 0.910156 0.710938 L 264.863281 0.710938 L 264.863281 264.664062 L 0.910156 264.664062 Z M 0.910156 0.710938 " clip-rule="nonzero"/></clipPath><clipPath id="12535e2fcb"><path d="M 0.910156 132.6875 C 0.910156 205.578125 59.996094 264.664062 132.886719 264.664062 C 205.773438 264.664062 264.863281 205.578125 264.863281 132.6875 C 264.863281 59.800781 205.773438 0.710938 132.886719 0.710938 C 59.996094 0.710938 0.910156 59.800781 0.910156 132.6875 Z M 0.910156 132.6875 " clip-rule="nonzero"/></clipPath><clipPath id="493c4e2bdf"><rect x="0" width="265" y="0" height="265"/></clipPath><clipPath id="ee059a9505"><path d="M 374.042969 112.828125 L 565.753906 112.828125 L 565.753906 256.019531 L 374.042969 256.019531 Z M 374.042969 112.828125 " clip-rule="nonzero"/></clipPath><clipPath id="d1830fcc6f"><path d="M 364 99.347656 L 559 99.347656 L 559 246 L 364 246 Z M 364 99.347656 " clip-rule="nonzero"/></clipPath><clipPath id="8d899899a8"><path d="M 0 0.140625 L 116.953125 0.140625 L 116.953125 139.75 L 0 139.75 Z M 0 0.140625 " clip-rule="nonzero"/></clipPath><clipPath id="1d2fa194cc"><path d="M 116.609375 -21.941406 L 116.609375 66.253906 L 39.441406 139.75 L -56.105469 139.75 L -56.105469 50.085938 L 19.964844 -21.941406 Z M 116.609375 -21.941406 " clip-rule="nonzero"/></clipPath><clipPath id="6ecaf4b34c"><path d="M 0 0.140625 L 116.824219 0.140625 L 116.824219 139.75 L 0 139.75 Z M 0 0.140625 " clip-rule="nonzero"/></clipPath><clipPath id="92ae0a6845"><path d="M 116.609375 -21.941406 L 116.609375 66.253906 L 39.441406 139.75 L -56.105469 139.75 L -56.105469 50.085938 L 19.964844 -21.941406 Z M 116.609375 -21.941406 " clip-rule="nonzero"/></clipPath><clipPath id="34559ce3b3"><rect x="0" width="117" y="0" height="140"/></clipPath><clipPath id="3f643aa176"><path d="M 677.613281 254.378906 L 1024 254.378906 L 1024 575.859375 L 677.613281 575.859375 Z M 677.613281 254.378906 " clip-rule="nonzero"/></clipPath><clipPath id="0bf9a24214"><path d="M 704.589844 445.648438 C 717.859375 461.605469 717.886719 503.945312 704.691406 519.96875 C 688.097656 540.109375 678.160156 565.878906 678.160156 593.894531 C 678.160156 658.589844 730.566406 710.5625 794.558594 710.5625 C 822.71875 710.5625 848.492188 700.660156 868.621094 684.117188 C 884.683594 670.917969 927.28125 670.917969 943.339844 684.113281 C 963.46875 700.660156 989.242188 710.5625 1017.410156 710.5625 C 1081.402344 710.5625 1133.796875 658.589844 1133.796875 593.894531 C 1133.796875 565.667969 1123.550781 539.726562 1106.679688 519.519531 C 1093.421875 503.644531 1093.421875 461.84375 1106.660156 445.949219 C 1123.542969 425.679688 1133.796875 399.589844 1133.796875 371.050781 C 1133.796875 306.914062 1081.402344 254.378906 1017.410156 254.378906 C 989.488281 254.378906 964.011719 264.066406 943.988281 280.277344 C 927.6875 293.476562 883.460938 293.328125 867.160156 280.132812 C 847.242188 264.007812 821.839844 254.378906 794 254.378906 C 730.007812 254.378906 677.613281 306.914062 677.613281 371.050781 C 677.613281 399.445312 687.765625 425.417969 704.589844 445.648438 Z M 704.589844 445.648438 " clip-rule="nonzero"/></clipPath><clipPath id="30fccc7a78"><path d="M 0.613281 0.378906 L 347 0.378906 L 347 321.859375 L 0.613281 321.859375 Z M 0.613281 0.378906 " clip-rule="nonzero"/></clipPath><clipPath id="81c3e20122"><path d="M 27.589844 191.648438 C 40.859375 207.605469 40.886719 249.945312 27.691406 265.96875 C 11.097656 286.109375 1.160156 311.878906 1.160156 339.894531 C 1.160156 404.589844 53.566406 456.5625 117.558594 456.5625 C 145.71875 456.5625 171.492188 446.660156 191.621094 430.117188 C 207.683594 416.917969 250.28125 416.917969 266.339844 430.113281 C 286.46875 446.660156 312.242188 456.5625 340.410156 456.5625 C 404.402344 456.5625 456.796875 404.589844 456.796875 339.894531 C 456.796875 311.667969 446.550781 285.726562 429.679688 265.519531 C 416.421875 249.644531 416.421875 207.84375 429.660156 191.949219 C 446.542969 171.679688 456.796875 145.589844 456.796875 117.050781 C 456.796875 52.914062 404.402344 0.378906 340.410156 0.378906 C 312.488281 0.378906 287.011719 10.066406 266.988281 26.277344 C 250.6875 39.476562 206.460938 39.328125 190.160156 26.132812 C 170.242188 10.007812 144.839844 0.378906 117 0.378906 C 53.007812 0.378906 0.613281 52.914062 0.613281 117.050781 C 0.613281 145.445312 10.765625 171.417969 27.589844 191.648438 Z M 27.589844 191.648438 " clip-rule="nonzero"/></clipPath><clipPath id="d0aa0b8d53"><rect x="0" width="347" y="0" height="322"/></clipPath></defs><g clip-path="url(#92a0de1eec)"><g clip-path="url(#ba4d29fd99)"><g transform="matrix(1, 0, 0, 1, 866, 139)"><g clip-path="url(#fe34f54294)"><g clip-path="url(#31b1846d2e)"><g clip-path="url(#49871ed923)"><path fill="#ecf2fe" d="M 0.894531 0.75 L 55.890625 0.75 L 55.890625 55.742188 L 0.894531 55.742188 Z M 0.894531 0.75 " fill-opacity="1" fill-rule="nonzero"/></g></g></g></g></g></g><g clip-path="url(#c253fe22da)"><g clip-path="url(#6bc49d408e)"><g transform="matrix(1, 0, 0, 1, 383, 60)"><g clip-path="url(#81eb3f80be)"><g clip-path="url(#b99e6c577d)"><g clip-path="url(#ed9501f0b0)"><path fill="#ecf2fe" d="M 0.816406 0.0390625 L 34.84375 0.0390625 L 34.84375 34.066406 L 0.816406 34.066406 Z M 0.816406 0.0390625 " fill-opacity="1" fill-rule="nonzero"/></g></g></g></g></g></g><path fill="#ecf2fe" d="M 321.105469 408.945312 L 326.285156 403.765625 C 326.902344 403.152344 326.902344 402.15625 326.285156 401.542969 C 325.671875 400.925781 324.675781 400.925781 324.0625 401.542969 L 318.882812 406.722656 L 313.703125 401.542969 C 313.089844 400.925781 312.09375 400.925781 311.476562 401.542969 C 310.863281 402.15625 310.863281 403.152344 311.476562 403.765625 L 316.660156 408.945312 L 311.464844 414.136719 C 310.851562 414.75 310.851562 415.746094 311.464844 416.363281 C 311.773438 416.667969 312.175781 416.824219 312.578125 416.824219 C 312.980469 416.824219 313.382812 416.667969 313.691406 416.363281 L 318.882812 411.167969 L 324.0625 416.347656 C 324.367188 416.65625 324.769531 416.808594 325.171875 416.808594 C 325.574219 416.808594 325.976562 416.65625 326.285156 416.347656 C 326.898438 415.734375 326.898438 414.738281 326.285156 414.125 Z M 321.105469 408.945312 " fill-opacity="1" fill-rule="nonzero"/><path fill="#ecf2fe" d="M 102.429688 380.96875 L 112.613281 370.789062 C 113.820312 369.582031 113.820312 367.625 112.613281 366.417969 C 111.40625 365.210938 109.449219 365.210938 108.242188 366.417969 L 98.0625 376.597656 L 87.882812 366.417969 C 86.675781 365.210938 84.71875 365.210938 83.511719 366.417969 C 82.304688 367.625 82.304688 369.582031 83.511719 370.789062 L 93.691406 380.96875 L 83.484375 391.171875 C 82.28125 392.378906 82.28125 394.335938 83.484375 395.542969 C 84.089844 396.144531 84.878906 396.449219 85.671875 396.449219 C 86.460938 396.449219 87.253906 396.144531 87.855469 395.542969 L 98.0625 385.339844 L 108.238281 395.519531 C 108.84375 396.121094 109.636719 396.421875 110.425781 396.421875 C 111.214844 396.421875 112.007812 396.121094 112.609375 395.519531 C 113.816406 394.3125 113.816406 392.355469 112.609375 391.148438 Z M 102.429688 380.96875 " fill-opacity="1" fill-rule="nonzero"/><g clip-path="url(#3283370c4a)"><g clip-path="url(#0c309e9ec1)"><g transform="matrix(1, 0, 0, 1, 332, 57)"><g clip-path="url(#493c4e2bdf)"><g clip-path="url(#cf581c1069)"><g clip-path="url(#12535e2fcb)"><path fill="#ecf2fe" d="M 0.910156 0.710938 L 264.863281 0.710938 L 264.863281 264.664062 L 0.910156 264.664062 Z M 0.910156 0.710938 " fill-opacity="1" fill-rule="nonzero"/></g></g></g></g></g></g><g clip-path="url(#ee059a9505)"><path fill="#ef5d50" d="M 486.90625 112.890625 L 393.417969 112.890625 C 382.757812 112.890625 374.042969 121.605469 374.042969 132.265625 L 374.042969 236.726562 C 374.042969 247.386719 382.757812 256.101562 393.417969 256.101562 L 546.382812 256.101562 C 557.039062 256.101562 565.757812 247.386719 565.757812 236.726562 L 565.757812 132.265625 C 565.726562 121.605469 557.007812 112.890625 546.382812 112.890625 L 486.90625 112.890625 " fill-opacity="1" fill-rule="nonzero"/></g><g clip-path="url(#d1830fcc6f)"><path fill="#000000" d="M 555.691406 224.816406 C 555.691406 228.609375 554.5 232.089844 552.460938 234.972656 C 552.367188 234.816406 552.273438 234.660156 552.148438 234.535156 L 481.140625 169.292969 L 549.953125 108.4375 C 550.175781 108.21875 550.332031 107.96875 550.394531 107.6875 C 553.652344 110.914062 555.691406 115.367188 555.691406 120.320312 Z M 537.945312 242.558594 L 384.984375 242.558594 C 380.03125 242.558594 375.550781 240.523438 372.320312 237.230469 C 372.539062 237.167969 372.757812 237.074219 372.945312 236.886719 L 444.238281 171.421875 L 460.382812 185.6875 C 460.699219 185.972656 461.074219 186.097656 461.449219 186.097656 C 461.828125 186.097656 462.203125 185.972656 462.515625 185.6875 L 478.664062 171.421875 L 549.953125 236.886719 C 550.144531 237.042969 550.363281 237.167969 550.582031 237.230469 C 547.382812 240.523438 542.902344 242.558594 537.945312 242.558594 Z M 367.242188 224.816406 L 367.242188 120.320312 C 367.242188 115.398438 369.277344 110.914062 372.539062 107.6875 C 372.632812 107.96875 372.757812 108.21875 372.976562 108.4375 L 441.824219 169.261719 L 370.785156 234.535156 C 370.628906 234.660156 370.53125 234.816406 370.46875 234.972656 C 368.433594 232.089844 367.242188 228.578125 367.242188 224.816406 Z M 537.945312 102.578125 C 541.742188 102.578125 545.285156 103.800781 548.167969 105.835938 C 548.042969 105.898438 547.917969 105.929688 547.824219 106.027344 L 461.480469 182.335938 L 375.109375 106.027344 C 375.015625 105.929688 374.890625 105.898438 374.765625 105.835938 C 377.648438 103.800781 381.191406 102.578125 384.984375 102.578125 Z M 537.945312 99.347656 L 384.984375 99.347656 C 373.417969 99.347656 364.011719 108.753906 364.011719 120.320312 L 364.011719 224.78125 C 364.011719 236.351562 373.417969 245.757812 384.984375 245.757812 L 537.945312 245.757812 C 549.515625 245.757812 558.921875 236.351562 558.921875 224.78125 L 558.921875 120.320312 C 558.921875 108.753906 549.515625 99.347656 537.945312 99.347656 " fill-opacity="1" fill-rule="nonzero"/></g><g clip-path="url(#8d899899a8)"><g clip-path="url(#1d2fa194cc)"><g transform="matrix(1, 0, 0, 1, 0, -0.000000000000058398)"><g clip-path="url(#34559ce3b3)"><g clip-path="url(#6ecaf4b34c)"><g clip-path="url(#92ae0a6845)"><path fill="#ef5d50" d="M -56.105469 -21.941406 L 116.324219 -21.941406 L 116.324219 139.75 L -56.105469 139.75 Z M -56.105469 -21.941406 " fill-opacity="1" fill-rule="nonzero"/></g></g></g></g></g></g><g clip-path="url(#3f643aa176)"><g clip-path="url(#0bf9a24214)"><g transform="matrix(1, 0, 0, 1, 677, 254)"><g clip-path="url(#d0aa0b8d53)"><g clip-path="url(#30fccc7a78)"><g clip-path="url(#81c3e20122)"><path fill="#ef5d50" d="M 0.613281 0.378906 L 456.796875 0.378906 L 456.796875 456.5625 L 0.613281 456.5625 Z M 0.613281 0.378906 " fill-opacity="1" fill-rule="nonzero"/></g></g></g></g></g></g></svg>