<svg xmlns="http://www.w3.org/2000/svg" xmlns:xlink="http://www.w3.org/1999/xlink" width="1366" zoomAndPan="magnify" viewBox="0 0 1024.5 576" height="768" preserveAspectRatio="xMidYMid meet" version="1.0"><defs><clipPath id="97dbf872ee"><path d="M 0 0.140625 L 1024 0.140625 L 1024 575.859375 L 0 575.859375 Z M 0 0.140625 " clip-rule="nonzero"/></clipPath><clipPath id="c48fef1249"><path d="M 244.441406 484.199219 L 718 484.199219 L 718 575.859375 L 244.441406 575.859375 Z M 244.441406 484.199219 " clip-rule="nonzero"/></clipPath><clipPath id="1e99db5df2"><path d="M 269.929688 484.199219 L 691.984375 484.199219 C 706.058594 484.199219 717.472656 495.609375 717.472656 509.6875 L 717.472656 677.6875 C 717.472656 691.761719 706.058594 703.175781 691.984375 703.175781 L 269.929688 703.175781 C 255.851562 703.175781 244.441406 691.761719 244.441406 677.6875 L 244.441406 509.6875 C 244.441406 495.609375 255.851562 484.199219 269.929688 484.199219 Z M 269.929688 484.199219 " clip-rule="nonzero"/></clipPath><clipPath id="4862da475a"><path d="M 0.441406 0.199219 L 473.488281 0.199219 L 473.488281 91.859375 L 0.441406 91.859375 Z M 0.441406 0.199219 " clip-rule="nonzero"/></clipPath><clipPath id="1d0e32f396"><path d="M 25.929688 0.199219 L 447.984375 0.199219 C 462.058594 0.199219 473.472656 11.609375 473.472656 25.6875 L 473.472656 193.6875 C 473.472656 207.761719 462.058594 219.175781 447.984375 219.175781 L 25.929688 219.175781 C 11.851562 219.175781 0.441406 207.761719 0.441406 193.6875 L 0.441406 25.6875 C 0.441406 11.609375 11.851562 0.199219 25.929688 0.199219 Z M 25.929688 0.199219 " clip-rule="nonzero"/></clipPath><clipPath id="9ea8c18032"><rect x="0" width="474" y="0" height="92"/></clipPath><clipPath id="3869cd7e31"><path d="M 0 0.140625 L 130.101562 0.140625 L 130.101562 518.28125 L 0 518.28125 Z M 0 0.140625 " clip-rule="nonzero"/></clipPath><clipPath id="3e9de0f42d"><path d="M -14.960938 492.792969 L -14.960938 25.621094 C -14.960938 11.542969 -3.546875 0.132812 10.527344 0.132812 L 104.613281 0.132812 C 118.6875 0.132812 130.101562 11.542969 130.101562 25.621094 L 130.101562 492.792969 C 130.101562 506.867188 118.6875 518.28125 104.613281 518.28125 L 10.527344 518.28125 C -3.546875 518.28125 -14.960938 506.867188 -14.960938 492.792969 Z M -14.960938 492.792969 " clip-rule="nonzero"/></clipPath><clipPath id="ccf3b578e2"><path d="M 0 0.140625 L 130.101562 0.140625 L 130.101562 518.28125 L 0 518.28125 Z M 0 0.140625 " clip-rule="nonzero"/></clipPath><clipPath id="9ad8b97821"><path d="M -14.960938 492.792969 L -14.960938 25.621094 C -14.960938 11.542969 -3.546875 0.132812 10.527344 0.132812 L 104.613281 0.132812 C 118.6875 0.132812 130.101562 11.542969 130.101562 25.621094 L 130.101562 492.792969 C 130.101562 506.867188 118.6875 518.28125 104.613281 518.28125 L 10.527344 518.28125 C -3.546875 518.28125 -14.960938 506.867188 -14.960938 492.792969 Z M -14.960938 492.792969 " clip-rule="nonzero"/></clipPath><clipPath id="4b70b11a9f"><rect x="0" width="131" y="0" height="519"/></clipPath><clipPath id="68b5b7b6a8"><path d="M 57.570312 0.140625 L 337.960938 0.140625 L 337.960938 244.179688 L 57.570312 244.179688 Z M 57.570312 0.140625 " clip-rule="nonzero"/></clipPath><clipPath id="14c6c7864e"><path d="M 197.765625 -36.207031 C 120.339844 -36.207031 57.570312 26.558594 57.570312 103.984375 C 57.570312 181.414062 120.339844 244.179688 197.765625 244.179688 C 275.195312 244.179688 337.960938 181.414062 337.960938 103.984375 C 337.960938 26.558594 275.195312 -36.207031 197.765625 -36.207031 Z M 197.765625 -36.207031 " clip-rule="nonzero"/></clipPath><clipPath id="a63558b04b"><path d="M 0.570312 0.140625 L 280.960938 0.140625 L 280.960938 244.179688 L 0.570312 244.179688 Z M 0.570312 0.140625 " clip-rule="nonzero"/></clipPath><clipPath id="c6172585e3"><path d="M 140.765625 -36.207031 C 63.339844 -36.207031 0.570312 26.558594 0.570312 103.984375 C 0.570312 181.414062 63.339844 244.179688 140.765625 244.179688 C 218.195312 244.179688 280.960938 181.414062 280.960938 103.984375 C 280.960938 26.558594 218.195312 -36.207031 140.765625 -36.207031 Z M 140.765625 -36.207031 " clip-rule="nonzero"/></clipPath><clipPath id="d904499d3f"><rect x="0" width="281" y="0" height="245"/></clipPath><clipPath id="147be4c926"><path d="M 866.894531 139.75 L 921.890625 139.75 L 921.890625 194.742188 L 866.894531 194.742188 Z M 866.894531 139.75 " clip-rule="nonzero"/></clipPath><clipPath id="4cd821326b"><path d="M 894.371094 194.742188 C 879.242188 194.742188 866.894531 182.394531 866.894531 167.226562 C 866.894531 152.097656 879.242188 139.75 894.371094 139.75 C 909.542969 139.75 921.847656 152.097656 921.847656 167.226562 C 921.890625 182.394531 909.542969 194.742188 894.371094 194.742188 Z M 894.371094 154.878906 C 887.585938 154.878906 882.023438 160.4375 882.023438 167.226562 C 882.023438 174.015625 887.585938 179.574219 894.371094 179.574219 C 901.160156 179.574219 906.71875 174.015625 906.71875 167.226562 C 906.71875 160.4375 901.199219 154.878906 894.371094 154.878906 Z M 894.371094 154.878906 " clip-rule="nonzero"/></clipPath><clipPath id="4a62262b38"><path d="M 0.894531 0.75 L 55.890625 0.75 L 55.890625 55.742188 L 0.894531 55.742188 Z M 0.894531 0.75 " clip-rule="nonzero"/></clipPath><clipPath id="b98a2183e2"><path d="M 28.371094 55.742188 C 13.242188 55.742188 0.894531 43.394531 0.894531 28.226562 C 0.894531 13.097656 13.242188 0.75 28.371094 0.75 C 43.542969 0.75 55.847656 13.097656 55.847656 28.226562 C 55.890625 43.394531 43.542969 55.742188 28.371094 55.742188 Z M 28.371094 15.878906 C 21.585938 15.878906 16.023438 21.4375 16.023438 28.226562 C 16.023438 35.015625 21.585938 40.574219 28.371094 40.574219 C 35.160156 40.574219 40.71875 35.015625 40.71875 28.226562 C 40.71875 21.4375 35.199219 15.878906 28.371094 15.878906 Z M 28.371094 15.878906 " clip-rule="nonzero"/></clipPath><clipPath id="b9bf19bf00"><rect x="0" width="56" y="0" height="56"/></clipPath><clipPath id="b31d389708"><path d="M 603.558594 225.1875 L 637.585938 225.1875 L 637.585938 259.214844 L 603.558594 259.214844 Z M 603.558594 225.1875 " clip-rule="nonzero"/></clipPath><clipPath id="a26d2ae6df"><path d="M 603.558594 242.199219 C 603.558594 251.597656 611.175781 259.214844 620.574219 259.214844 C 629.96875 259.214844 637.585938 251.597656 637.585938 242.199219 C 637.585938 232.804688 629.96875 225.1875 620.574219 225.1875 C 611.175781 225.1875 603.558594 232.804688 603.558594 242.199219 Z M 603.558594 242.199219 " clip-rule="nonzero"/></clipPath><clipPath id="39a131cd26"><path d="M 0.558594 0.1875 L 34.585938 0.1875 L 34.585938 34.214844 L 0.558594 34.214844 Z M 0.558594 0.1875 " clip-rule="nonzero"/></clipPath><clipPath id="dec1ae92c4"><path d="M 0.558594 17.199219 C 0.558594 26.597656 8.175781 34.214844 17.574219 34.214844 C 26.96875 34.214844 34.585938 26.597656 34.585938 17.199219 C 34.585938 7.804688 26.96875 0.1875 17.574219 0.1875 C 8.175781 0.1875 0.558594 7.804688 0.558594 17.199219 Z M 0.558594 17.199219 " clip-rule="nonzero"/></clipPath><clipPath id="1862dbb72f"><rect x="0" width="35" y="0" height="35"/></clipPath><clipPath id="e3990e49a3"><path d="M 425.71875 300 L 608.75 300 L 608.75 540.765625 L 425.71875 540.765625 Z M 425.71875 300 " clip-rule="nonzero"/></clipPath><clipPath id="815815ea5b"><path d="M 347.457031 225.1875 L 676.535156 225.1875 L 676.535156 538.863281 L 347.457031 538.863281 Z M 347.457031 225.1875 " clip-rule="nonzero"/></clipPath></defs><g clip-path="url(#97dbf872ee)"><path fill="#ffffff" d="M 0 0.140625 L 1024 0.140625 L 1024 575.859375 L 0 575.859375 Z M 0 0.140625 " fill-opacity="1" fill-rule="nonzero"/><path fill="#ef5d50" d="M 0 0.140625 L 1024 0.140625 L 1024 575.859375 L 0 575.859375 Z M 0 0.140625 " fill-opacity="1" fill-rule="nonzero"/></g><g clip-path="url(#c48fef1249)"><g clip-path="url(#1e99db5df2)"><g transform="matrix(1, 0, 0, 1, 244, 484)"><g clip-path="url(#9ea8c18032)"><g clip-path="url(#4862da475a)"><g clip-path="url(#1d0e32f396)"><path fill="#ecf2fe" d="M 0.441406 0.199219 L 473.460938 0.199219 L 473.460938 219.175781 L 0.441406 219.175781 Z M 0.441406 0.199219 " fill-opacity="1" fill-rule="nonzero"/></g></g></g></g></g></g><g clip-path="url(#3869cd7e31)"><g clip-path="url(#3e9de0f42d)"><g transform="matrix(1, 0, 0, 1, 0, -0.000000000000058398)"><g clip-path="url(#4b70b11a9f)"><g clip-path="url(#ccf3b578e2)"><g clip-path="url(#9ad8b97821)"><path fill="#ecf2fe" d="M -14.960938 518.28125 L -14.960938 0.371094 L 130.101562 0.371094 L 130.101562 518.28125 Z M -14.960938 518.28125 " fill-opacity="1" fill-rule="nonzero"/></g></g></g></g></g></g><g clip-path="url(#68b5b7b6a8)"><g clip-path="url(#14c6c7864e)"><g transform="matrix(1, 0, 0, 1, 57, -0.000000000000058398)"><g clip-path="url(#d904499d3f)"><g clip-path="url(#a63558b04b)"><g clip-path="url(#c6172585e3)"><path fill="#ecf2fe" d="M 0.570312 -36.207031 L 280.960938 -36.207031 L 280.960938 244.179688 L 0.570312 244.179688 Z M 0.570312 -36.207031 " fill-opacity="1" fill-rule="nonzero"/></g></g></g></g></g></g><g clip-path="url(#147be4c926)"><g clip-path="url(#4cd821326b)"><g transform="matrix(1, 0, 0, 1, 866, 139)"><g clip-path="url(#b9bf19bf00)"><g clip-path="url(#4a62262b38)"><g clip-path="url(#b98a2183e2)"><path fill="#ecf2fe" d="M 0.894531 0.75 L 55.890625 0.75 L 55.890625 55.742188 L 0.894531 55.742188 Z M 0.894531 0.75 " fill-opacity="1" fill-rule="nonzero"/></g></g></g></g></g></g><g clip-path="url(#b31d389708)"><g clip-path="url(#a26d2ae6df)"><g transform="matrix(1, 0, 0, 1, 603, 225)"><g clip-path="url(#1862dbb72f)"><g clip-path="url(#39a131cd26)"><g clip-path="url(#dec1ae92c4)"><path fill="#ecf2fe" d="M 0.558594 0.1875 L 34.585938 0.1875 L 34.585938 34.214844 L 0.558594 34.214844 Z M 0.558594 0.1875 " fill-opacity="1" fill-rule="nonzero"/></g></g></g></g></g></g><path fill="#ecf2fe" d="M 656.464844 405.332031 C 650.289062 372.878906 632.273438 344.394531 611.65625 319.097656 C 593.449219 296.792969 571.859375 276.828125 545.78125 264.144531 C 533.164062 257.96875 518.921875 252.308594 504.808594 251.53125 C 490.761719 250.75 476.585938 253.546875 463.707031 259.203125 C 450.636719 264.859375 438.734375 273.707031 429.828125 284.761719 C 419.679688 297.246094 414.023438 312.269531 408.105469 327.097656 C 394.707031 360.785156 374.15625 390.960938 360.5 424.648438 C 348.40625 454.433594 342.488281 488.378906 354.84375 519.203125 C 366.679688 548.597656 394.253906 565.507812 424.558594 571.230469 C 459.222656 577.667969 495.054688 570.644531 527.308594 557.3125 C 543.503906 550.679688 558.980469 542.421875 574.070312 533.511719 C 588.960938 524.667969 603.917969 515.628906 617.835938 505.351562 C 630.453125 496.054688 641.507812 485.0625 648.464844 470.886719 C 655.101562 457.421875 658.285156 442.335938 658.417969 427.3125 C 658.480469 419.835938 657.703125 412.484375 656.464844 405.332031 " fill-opacity="1" fill-rule="nonzero"/><g clip-path="url(#e3990e49a3)"><path fill="#5556fe" d="M 517.042969 300.230469 C 466.617188 300.230469 425.78125 341.128906 425.78125 391.492188 C 425.78125 418.882812 437.898438 443.5 457.023438 460.222656 C 459.230469 458.644531 461.882812 457.699219 464.785156 457.699219 L 554.34375 457.699219 C 560.53125 457.699219 565.769531 461.992188 567.21875 467.734375 C 591.960938 451.386719 608.308594 423.367188 608.308594 391.492188 C 608.308594 341.0625 567.472656 300.230469 517.042969 300.230469 Z M 559.519531 508.128906 C 553.398438 527.757812 535.03125 541.074219 514.644531 540.757812 C 494.765625 540.441406 477.15625 527.1875 471.285156 508.066406 C 500.699219 508.066406 530.109375 508.066406 559.519531 508.128906 " fill-opacity="1" fill-rule="nonzero"/></g><path fill="#ecf2fe" d="M 557.816406 503.394531 L 457.652344 503.394531 C 454.246094 503.394531 451.46875 500.617188 451.46875 497.210938 L 451.46875 489.003906 C 451.46875 485.597656 454.246094 482.820312 457.652344 482.820312 L 557.816406 482.820312 C 561.226562 482.820312 564 485.597656 564 489.003906 L 564 497.210938 C 564.066406 500.554688 561.226562 503.394531 557.816406 503.394531 Z M 564.066406 476.445312 L 564.066406 468.238281 C 564.066406 464.832031 561.289062 462.054688 557.878906 462.054688 L 457.652344 462.054688 C 454.246094 462.054688 451.46875 464.832031 451.46875 468.238281 L 451.46875 476.445312 C 451.46875 479.851562 454.246094 482.628906 457.652344 482.628906 L 557.816406 482.628906 C 561.226562 482.691406 564.066406 479.851562 564.066406 476.445312 Z M 537.429688 389.03125 C 535.347656 386.949219 532.570312 385.75 529.414062 385.75 L 528.40625 385.75 C 522.15625 385.75 517.171875 390.734375 517.109375 396.984375 L 517.042969 408.34375 L 529.414062 408.34375 C 535.664062 408.34375 540.710938 403.292969 540.710938 397.046875 C 540.710938 393.890625 539.449219 391.050781 537.429688 389.03125 Z M 502.589844 396.542969 L 502.589844 408.28125 L 487.824219 408.28125 C 484.605469 408.28125 481.636719 406.957031 479.492188 404.808594 C 477.34375 402.664062 476.082031 399.761719 476.082031 396.542969 C 476.082031 390.039062 481.320312 384.800781 487.824219 384.800781 L 490.851562 384.800781 C 497.289062 384.800781 502.589844 390.039062 502.589844 396.542969 " fill-opacity="1" fill-rule="nonzero"/><g clip-path="url(#815815ea5b)"><path fill="#000000" d="M 527.773438 472.34375 C 527.773438 472.910156 527.332031 473.414062 526.699219 473.414062 L 486.308594 473.414062 C 485.738281 473.414062 485.234375 472.972656 485.234375 472.34375 C 485.234375 471.710938 485.675781 471.269531 486.308594 471.269531 L 526.699219 471.269531 C 527.332031 471.332031 527.773438 471.773438 527.773438 472.34375 Z M 640.308594 278.769531 L 604.015625 315.5625 C 603.828125 315.753906 603.511719 315.878906 603.257812 315.878906 C 603.007812 315.878906 602.753906 315.753906 602.5 315.5625 C 602.058594 315.1875 602.058594 314.492188 602.5 314.050781 L 638.792969 277.253906 C 639.171875 276.8125 639.867188 276.8125 640.308594 277.253906 C 640.75 277.695312 640.75 278.328125 640.308594 278.769531 Z M 380.023438 280.851562 C 379.644531 280.410156 379.644531 279.777344 380.023438 279.335938 C 380.464844 278.957031 381.09375 278.957031 381.535156 279.335938 L 417.828125 316.132812 C 418.207031 316.574219 418.207031 317.207031 417.828125 317.648438 C 417.636719 317.835938 417.386719 317.960938 417.070312 317.960938 C 416.816406 317.960938 416.5 317.835938 416.3125 317.648438 Z M 506.695312 277.886719 L 506.695312 226.257812 C 506.695312 225.691406 507.136719 225.183594 507.765625 225.183594 C 508.398438 225.183594 508.839844 225.625 508.839844 226.257812 L 508.839844 277.886719 C 508.839844 278.453125 508.398438 278.957031 507.765625 278.957031 C 507.136719 278.957031 506.695312 278.453125 506.695312 277.886719 Z M 676.535156 393.195312 C 676.535156 393.761719 676.09375 394.269531 675.460938 394.269531 L 623.835938 394.269531 C 623.265625 394.269531 622.761719 393.828125 622.761719 393.195312 C 622.761719 392.5625 623.203125 392.121094 623.835938 392.121094 L 675.460938 392.121094 C 676.03125 392.121094 676.535156 392.628906 676.535156 393.195312 Z M 399.902344 393.257812 C 399.902344 393.828125 399.460938 394.332031 398.828125 394.332031 L 348.527344 394.332031 C 347.960938 394.332031 347.453125 393.890625 347.453125 393.257812 C 347.453125 392.628906 347.894531 392.183594 348.527344 392.183594 L 398.894531 392.183594 C 399.460938 392.183594 399.902344 392.691406 399.902344 393.257812 Z M 435.625 408.40625 C 435.75 408.972656 435.4375 409.542969 434.867188 409.667969 C 434.804688 409.667969 434.679688 409.730469 434.617188 409.730469 C 434.175781 409.730469 433.730469 409.414062 433.605469 408.972656 C 432.53125 404.933594 431.710938 400.832031 431.269531 396.667969 C 431.207031 396.097656 431.648438 395.59375 432.21875 395.53125 C 432.785156 395.46875 433.289062 395.910156 433.351562 396.476562 C 433.796875 400.453125 434.550781 404.492188 435.625 408.40625 Z M 491.921875 313.480469 C 492.050781 314.050781 491.734375 314.617188 491.167969 314.742188 C 459.167969 322.316406 435.878906 349.394531 433.226562 382.214844 C 433.164062 382.78125 432.722656 383.160156 432.15625 383.160156 L 432.089844 383.160156 C 431.523438 383.097656 431.082031 382.59375 431.144531 382.023438 C 433.859375 348.320312 457.777344 320.488281 490.660156 312.722656 C 491.167969 312.535156 491.734375 312.914062 491.921875 313.480469 Z M 521.082031 412.128906 L 521.144531 403.230469 C 521.144531 398.371094 525.121094 394.457031 529.980469 394.457031 L 530.867188 394.457031 C 533.199219 394.457031 535.472656 395.402344 537.113281 397.046875 C 538.753906 398.6875 539.703125 400.894531 539.703125 403.292969 C 539.703125 408.152344 535.726562 412.128906 530.867188 412.128906 Z M 556.742188 461.167969 L 556.554688 461.359375 C 555.667969 461.105469 554.722656 460.980469 553.710938 460.980469 L 520.765625 460.980469 L 521.019531 414.277344 L 530.800781 414.277344 C 536.796875 414.277344 541.722656 409.351562 541.722656 403.355469 C 541.722656 400.453125 540.585938 397.675781 538.503906 395.65625 C 536.417969 393.574219 533.707031 392.4375 530.738281 392.4375 L 529.855469 392.4375 C 523.859375 392.4375 518.9375 397.296875 518.9375 403.292969 L 518.875 412.191406 L 498.046875 412.191406 L 498.046875 403.355469 C 498.046875 397.359375 493.121094 392.4375 487.128906 392.4375 L 484.601562 392.4375 C 478.605469 392.4375 473.683594 397.359375 473.683594 403.355469 C 473.683594 406.261719 474.820312 409.035156 476.902344 411.058594 C 478.984375 413.140625 481.699219 414.277344 484.664062 414.277344 L 496.027344 414.277344 L 496.027344 460.980469 L 461.753906 460.980469 C 460.746094 460.980469 459.796875 461.105469 458.914062 461.359375 L 458.726562 461.167969 C 433.289062 444.507812 418.078125 416.484375 418.078125 386.125 C 418.078125 336.707031 458.285156 296.503906 507.703125 296.503906 C 557.121094 296.503906 597.324219 336.707031 597.324219 386.125 C 597.386719 416.421875 582.175781 444.507812 556.742188 461.167969 Z M 518.683594 460.980469 L 498.109375 460.980469 L 498.109375 414.277344 L 518.9375 414.277344 Z M 496.027344 412.128906 L 484.664062 412.128906 C 482.332031 412.128906 480.058594 411.183594 478.417969 409.542969 C 476.777344 407.902344 475.828125 405.691406 475.828125 403.292969 C 475.828125 398.433594 479.804688 394.457031 484.664062 394.457031 L 487.191406 394.457031 C 492.050781 394.457031 496.027344 398.433594 496.027344 403.292969 Z M 562.925781 471.332031 L 538.25 471.332031 C 537.683594 471.332031 537.175781 471.773438 537.175781 472.402344 C 537.175781 473.035156 537.617188 473.476562 538.25 473.476562 L 562.925781 473.476562 C 562.421875 478.085938 558.445312 481.683594 553.710938 481.683594 L 461.753906 481.683594 C 457.019531 481.683594 453.046875 478.085938 452.539062 473.476562 L 473.808594 473.476562 C 474.378906 473.476562 474.882812 473.035156 474.882812 472.402344 C 474.882812 471.773438 474.441406 471.332031 473.808594 471.332031 L 452.539062 471.332031 C 453.046875 466.722656 457.019531 463.125 461.753906 463.125 L 553.710938 463.125 C 558.445312 463.0625 562.421875 466.660156 562.925781 471.332031 Z M 562.925781 491.96875 L 509.910156 491.96875 C 509.34375 491.96875 508.839844 492.410156 508.839844 493.042969 C 508.839844 493.609375 509.28125 494.117188 509.910156 494.117188 L 562.925781 494.117188 C 562.421875 498.722656 558.507812 502.320312 553.710938 502.320312 L 460.617188 502.257812 C 456.390625 501.753906 453.046875 498.34375 452.539062 494.117188 L 494.574219 494.117188 C 495.144531 494.117188 495.648438 493.671875 495.648438 493.042969 C 495.648438 492.472656 495.207031 491.96875 494.574219 491.96875 L 452.539062 491.96875 C 453.046875 487.363281 457.019531 483.765625 461.753906 483.765625 L 553.710938 483.765625 C 558.445312 483.765625 562.421875 487.363281 562.925781 491.96875 Z M 507.007812 536.78125 C 486.8125 536.464844 469.203125 523.527344 462.636719 504.402344 L 552.890625 504.402344 C 546.203125 523.90625 527.519531 537.097656 507.007812 536.78125 Z M 507.765625 294.359375 C 457.210938 294.359375 416.058594 335.507812 416.058594 386.0625 C 416.058594 416.738281 431.207031 445.074219 456.644531 462.179688 C 452.980469 464.074219 450.457031 467.859375 450.457031 472.277344 C 450.457031 476.886719 453.171875 480.863281 457.148438 482.628906 C 453.234375 484.394531 450.457031 488.371094 450.457031 492.980469 C 450.457031 498.785156 454.8125 503.582031 460.492188 504.277344 C 467.121094 524.664062 485.738281 538.484375 507.007812 538.863281 L 507.765625 538.863281 C 529.160156 538.863281 548.472656 524.789062 555.164062 504.277344 C 560.78125 503.582031 565.136719 498.785156 565.136719 492.980469 C 565.136719 488.371094 562.421875 484.394531 558.445312 482.628906 C 562.359375 480.863281 565.136719 476.886719 565.136719 472.277344 C 565.136719 467.859375 562.613281 464.074219 558.953125 462.179688 C 584.386719 445.074219 599.535156 416.675781 599.535156 386.0625 C 599.472656 335.507812 558.320312 294.359375 507.765625 294.359375 " fill-opacity="1" fill-rule="nonzero"/></g><path fill="#ecf2fe" d="M 583.738281 325.839844 L 588.917969 320.660156 C 589.535156 320.046875 589.535156 319.050781 588.917969 318.433594 C 588.304688 317.820312 587.3125 317.820312 586.695312 318.433594 L 581.515625 323.613281 L 576.335938 318.433594 C 575.722656 317.820312 574.726562 317.820312 574.113281 318.433594 C 573.496094 319.050781 573.496094 320.046875 574.113281 320.660156 L 579.292969 325.839844 L 574.097656 331.03125 C 573.484375 331.644531 573.484375 332.640625 574.097656 333.253906 C 574.40625 333.5625 574.808594 333.714844 575.210938 333.714844 C 575.613281 333.714844 576.015625 333.5625 576.324219 333.253906 L 581.515625 328.0625 L 586.695312 333.242188 C 587.003906 333.550781 587.40625 333.703125 587.808594 333.703125 C 588.210938 333.703125 588.613281 333.550781 588.917969 333.242188 C 589.53125 332.628906 589.53125 331.632812 588.917969 331.019531 Z M 583.738281 325.839844 " fill-opacity="1" fill-rule="nonzero"/><path fill="#ecf2fe" d="M 452.699219 158.296875 L 462.878906 148.113281 C 464.085938 146.910156 464.085938 144.953125 462.878906 143.746094 C 461.671875 142.539062 459.714844 142.539062 458.507812 143.746094 L 448.328125 153.925781 L 438.148438 143.746094 C 436.941406 142.539062 434.984375 142.539062 433.777344 143.746094 C 432.570312 144.953125 432.570312 146.910156 433.777344 148.117188 L 443.957031 158.296875 L 433.753906 168.5 C 432.546875 169.707031 432.546875 171.664062 433.753906 172.871094 C 434.355469 173.472656 435.148438 173.777344 435.9375 173.777344 C 436.726562 173.777344 437.519531 173.472656 438.125 172.871094 L 448.328125 162.667969 L 458.507812 172.84375 C 459.109375 173.449219 459.902344 173.75 460.691406 173.75 C 461.480469 173.75 462.273438 173.449219 462.875 172.84375 C 464.082031 171.640625 464.082031 169.683594 462.875 168.476562 Z M 452.699219 158.296875 " fill-opacity="1" fill-rule="nonzero"/></svg>