<svg xmlns="http://www.w3.org/2000/svg" xmlns:xlink="http://www.w3.org/1999/xlink" width="1366" zoomAndPan="magnify" viewBox="0 0 1024.5 576" height="768" preserveAspectRatio="xMidYMid meet" version="1.0"><defs><clipPath id="81f0e73217"><path d="M 0 0.140625 L 1024 0.140625 L 1024 575.859375 L 0 575.859375 Z M 0 0.140625 " clip-rule="nonzero"/></clipPath><clipPath id="4c3e9ab15e"><path d="M 585.320312 178.511719 L 1024 178.511719 L 1024 397.488281 L 585.320312 397.488281 Z M 585.320312 178.511719 " clip-rule="nonzero"/></clipPath><clipPath id="071cb3e84e"><path d="M 610.808594 178.511719 L 1032.863281 178.511719 C 1046.941406 178.511719 1058.351562 189.925781 1058.351562 204 L 1058.351562 372 C 1058.351562 386.074219 1046.941406 397.488281 1032.863281 397.488281 L 610.808594 397.488281 C 596.734375 397.488281 585.320312 386.074219 585.320312 372 L 585.320312 204 C 585.320312 189.925781 596.734375 178.511719 610.808594 178.511719 Z M 610.808594 178.511719 " clip-rule="nonzero"/></clipPath><clipPath id="3c561b223d"><path d="M 0.320312 0.511719 L 439 0.511719 L 439 219.488281 L 0.320312 219.488281 Z M 0.320312 0.511719 " clip-rule="nonzero"/></clipPath><clipPath id="1f678b3029"><path d="M 25.808594 0.511719 L 447.863281 0.511719 C 461.941406 0.511719 473.351562 11.925781 473.351562 26 L 473.351562 194 C 473.351562 208.074219 461.941406 219.488281 447.863281 219.488281 L 25.808594 219.488281 C 11.734375 219.488281 0.320312 208.074219 0.320312 194 L 0.320312 26 C 0.320312 11.925781 11.734375 0.511719 25.808594 0.511719 Z M 25.808594 0.511719 " clip-rule="nonzero"/></clipPath><clipPath id="876eea1cdf"><rect x="0" width="439" y="0" height="220"/></clipPath><clipPath id="5c7cca3e14"><path d="M 0 0.140625 L 130.101562 0.140625 L 130.101562 518.28125 L 0 518.28125 Z M 0 0.140625 " clip-rule="nonzero"/></clipPath><clipPath id="b247cbb55d"><path d="M -14.960938 492.792969 L -14.960938 25.621094 C -14.960938 11.542969 -3.546875 0.132812 10.527344 0.132812 L 104.613281 0.132812 C 118.6875 0.132812 130.101562 11.542969 130.101562 25.621094 L 130.101562 492.792969 C 130.101562 506.867188 118.6875 518.28125 104.613281 518.28125 L 10.527344 518.28125 C -3.546875 518.28125 -14.960938 506.867188 -14.960938 492.792969 Z M -14.960938 492.792969 " clip-rule="nonzero"/></clipPath><clipPath id="274f13414c"><path d="M 0 0.140625 L 130.101562 0.140625 L 130.101562 518.28125 L 0 518.28125 Z M 0 0.140625 " clip-rule="nonzero"/></clipPath><clipPath id="966ee2de94"><path d="M -14.960938 492.792969 L -14.960938 25.621094 C -14.960938 11.542969 -3.546875 0.132812 10.527344 0.132812 L 104.613281 0.132812 C 118.6875 0.132812 130.101562 11.542969 130.101562 25.621094 L 130.101562 492.792969 C 130.101562 506.867188 118.6875 518.28125 104.613281 518.28125 L 10.527344 518.28125 C -3.546875 518.28125 -14.960938 506.867188 -14.960938 492.792969 Z M -14.960938 492.792969 " clip-rule="nonzero"/></clipPath><clipPath id="1dd4147d00"><rect x="0" width="131" y="0" height="519"/></clipPath><clipPath id="ec4def7ded"><path d="M 798.765625 368.703125 L 1024 368.703125 L 1024 575.859375 L 798.765625 575.859375 Z M 798.765625 368.703125 " clip-rule="nonzero"/></clipPath><clipPath id="927cdb498f"><path d="M 938.960938 368.703125 C 861.53125 368.703125 798.765625 431.46875 798.765625 508.894531 C 798.765625 586.324219 861.53125 649.089844 938.960938 649.089844 C 1016.386719 649.089844 1079.15625 586.324219 1079.15625 508.894531 C 1079.15625 431.46875 1016.386719 368.703125 938.960938 368.703125 Z M 938.960938 368.703125 " clip-rule="nonzero"/></clipPath><clipPath id="904a456b12"><path d="M 0.765625 0.703125 L 226 0.703125 L 226 207.859375 L 0.765625 207.859375 Z M 0.765625 0.703125 " clip-rule="nonzero"/></clipPath><clipPath id="57e3ecc383"><path d="M 140.960938 0.703125 C 63.53125 0.703125 0.765625 63.46875 0.765625 140.894531 C 0.765625 218.324219 63.53125 281.089844 140.960938 281.089844 C 218.386719 281.089844 281.15625 218.324219 281.15625 140.894531 C 281.15625 63.46875 218.386719 0.703125 140.960938 0.703125 Z M 140.960938 0.703125 " clip-rule="nonzero"/></clipPath><clipPath id="cedbb5e79f"><rect x="0" width="226" y="0" height="208"/></clipPath><clipPath id="d4a21ff27a"><path d="M 809.675781 385.375 L 1024 385.375 L 1024 575.859375 L 809.675781 575.859375 Z M 809.675781 385.375 " clip-rule="nonzero"/></clipPath><clipPath id="a359a413a6"><path d="M 809.675781 492.535156 C 809.675781 551.71875 857.65625 599.699219 916.839844 599.699219 C 976.023438 599.699219 1024 551.71875 1024 492.535156 C 1024 433.351562 976.023438 385.375 916.839844 385.375 C 857.65625 385.375 809.675781 433.351562 809.675781 492.535156 Z M 809.675781 492.535156 " clip-rule="nonzero"/></clipPath><clipPath id="611fd66d92"><path d="M 0.675781 0.375 L 215 0.375 L 215 190.859375 L 0.675781 190.859375 Z M 0.675781 0.375 " clip-rule="nonzero"/></clipPath><clipPath id="ea07347304"><path d="M 0.675781 107.535156 C 0.675781 166.71875 48.65625 214.699219 107.839844 214.699219 C 167.023438 214.699219 215 166.71875 215 107.535156 C 215 48.351562 167.023438 0.375 107.839844 0.375 C 48.65625 0.375 0.675781 48.351562 0.675781 107.535156 Z M 0.675781 107.535156 " clip-rule="nonzero"/></clipPath><clipPath id="a25dcd3d65"><rect x="0" width="215" y="0" height="191"/></clipPath><clipPath id="1c7345e82f"><path d="M 861.382812 368.703125 L 972.246094 368.703125 L 972.246094 575.859375 L 861.382812 575.859375 Z M 861.382812 368.703125 " clip-rule="nonzero"/></clipPath><clipPath id="5b0e0dfd36"><path d="M 717.472656 57.710938 L 772.464844 57.710938 L 772.464844 112.707031 L 717.472656 112.707031 Z M 717.472656 57.710938 " clip-rule="nonzero"/></clipPath><clipPath id="7a95b8a6c3"><path d="M 744.949219 112.707031 C 729.820312 112.707031 717.472656 100.359375 717.472656 85.1875 C 717.472656 70.0625 729.820312 57.710938 744.949219 57.710938 C 760.117188 57.710938 772.425781 70.0625 772.425781 85.1875 C 772.464844 100.359375 760.117188 112.707031 744.949219 112.707031 Z M 744.949219 72.839844 C 738.160156 72.839844 732.597656 78.402344 732.597656 85.1875 C 732.597656 91.976562 738.160156 97.539062 744.949219 97.539062 C 751.734375 97.539062 757.296875 91.976562 757.296875 85.1875 C 757.296875 78.402344 751.777344 72.839844 744.949219 72.839844 Z M 744.949219 72.839844 " clip-rule="nonzero"/></clipPath><clipPath id="d5e961e6ac"><path d="M 0.472656 0.710938 L 55.464844 0.710938 L 55.464844 55.707031 L 0.472656 55.707031 Z M 0.472656 0.710938 " clip-rule="nonzero"/></clipPath><clipPath id="0f9c6440e2"><path d="M 27.949219 55.707031 C 12.820312 55.707031 0.472656 43.359375 0.472656 28.1875 C 0.472656 13.0625 12.820312 0.710938 27.949219 0.710938 C 43.117188 0.710938 55.425781 13.0625 55.425781 28.1875 C 55.464844 43.359375 43.117188 55.707031 27.949219 55.707031 Z M 27.949219 15.839844 C 21.160156 15.839844 15.597656 21.402344 15.597656 28.1875 C 15.597656 34.976562 21.160156 40.539062 27.949219 40.539062 C 34.734375 40.539062 40.296875 34.976562 40.296875 28.1875 C 40.296875 21.402344 34.777344 15.839844 27.949219 15.839844 Z M 27.949219 15.839844 " clip-rule="nonzero"/></clipPath><clipPath id="b4bbe610a6"><rect x="0" width="56" y="0" height="56"/></clipPath><clipPath id="1b953bc2bb"><path d="M 266.621094 467.183594 L 300.648438 467.183594 L 300.648438 501.214844 L 266.621094 501.214844 Z M 266.621094 467.183594 " clip-rule="nonzero"/></clipPath><clipPath id="efd243406c"><path d="M 266.621094 484.199219 C 266.621094 493.597656 274.238281 501.214844 283.636719 501.214844 C 293.03125 501.214844 300.648438 493.597656 300.648438 484.199219 C 300.648438 474.804688 293.03125 467.183594 283.636719 467.183594 C 274.238281 467.183594 266.621094 474.804688 266.621094 484.199219 Z M 266.621094 484.199219 " clip-rule="nonzero"/></clipPath><clipPath id="f7ce444d40"><path d="M 0.621094 0.183594 L 34.648438 0.183594 L 34.648438 34.214844 L 0.621094 34.214844 Z M 0.621094 0.183594 " clip-rule="nonzero"/></clipPath><clipPath id="3c254590d5"><path d="M 0.621094 17.199219 C 0.621094 26.597656 8.238281 34.214844 17.636719 34.214844 C 27.03125 34.214844 34.648438 26.597656 34.648438 17.199219 C 34.648438 7.804688 27.03125 0.183594 17.636719 0.183594 C 8.238281 0.183594 0.621094 7.804688 0.621094 17.199219 Z M 0.621094 17.199219 " clip-rule="nonzero"/></clipPath><clipPath id="e9cfd686fc"><rect x="0" width="35" y="0" height="35"/></clipPath></defs><g clip-path="url(#81f0e73217)"><path fill="#ffffff" d="M 0 0.140625 L 1024 0.140625 L 1024 575.859375 L 0 575.859375 Z M 0 0.140625 " fill-opacity="1" fill-rule="nonzero"/><path fill="#3241e4" d="M 0 0.140625 L 1024 0.140625 L 1024 575.859375 L 0 575.859375 Z M 0 0.140625 " fill-opacity="1" fill-rule="nonzero"/></g><g clip-path="url(#4c3e9ab15e)"><g clip-path="url(#071cb3e84e)"><g transform="matrix(1, 0, 0, 1, 585, 178)"><g clip-path="url(#876eea1cdf)"><g clip-path="url(#3c561b223d)"><g clip-path="url(#1f678b3029)"><path fill="#ecf2fe" d="M 0.320312 0.511719 L 473.339844 0.511719 L 473.339844 219.488281 L 0.320312 219.488281 Z M 0.320312 0.511719 " fill-opacity="1" fill-rule="nonzero"/></g></g></g></g></g></g><g clip-path="url(#5c7cca3e14)"><g clip-path="url(#b247cbb55d)"><g transform="matrix(1, 0, 0, 1, 0, -0.000000000000058398)"><g clip-path="url(#1dd4147d00)"><g clip-path="url(#274f13414c)"><g clip-path="url(#966ee2de94)"><path fill="#ecf2fe" d="M -14.960938 518.28125 L -14.960938 0.371094 L 130.101562 0.371094 L 130.101562 518.28125 Z M -14.960938 518.28125 " fill-opacity="1" fill-rule="nonzero"/></g></g></g></g></g></g><g clip-path="url(#ec4def7ded)"><g clip-path="url(#927cdb498f)"><g transform="matrix(1, 0, 0, 1, 798, 368)"><g clip-path="url(#cedbb5e79f)"><g clip-path="url(#904a456b12)"><g clip-path="url(#57e3ecc383)"><path fill="#ecf2fe" d="M 0.765625 0.703125 L 281.15625 0.703125 L 281.15625 281.089844 L 0.765625 281.089844 Z M 0.765625 0.703125 " fill-opacity="1" fill-rule="nonzero"/></g></g></g></g></g></g><g clip-path="url(#d4a21ff27a)"><g clip-path="url(#a359a413a6)"><g transform="matrix(1, 0, 0, 1, 809, 385)"><g clip-path="url(#a25dcd3d65)"><g clip-path="url(#611fd66d92)"><g clip-path="url(#ea07347304)"><path fill="#ecf2fe" d="M 0.675781 0.375 L 215 0.375 L 215 214.699219 L 0.675781 214.699219 Z M 0.675781 0.375 " fill-opacity="1" fill-rule="nonzero"/></g></g></g></g></g></g><path fill="#3241e4" d="M 883.28125 462.824219 L 864.652344 418.082031 L 905.394531 401.132812 L 924.839844 447.9375 L 962.007812 537.25 L 921.269531 554.199219 L 883.28125 462.824219 " fill-opacity="1" fill-rule="nonzero"/><g clip-path="url(#1c7345e82f)"><path fill="#000000" d="M 883.839844 380.910156 C 883.625 380.394531 883.882812 379.75 884.398438 379.535156 L 888.875 377.683594 C 893.003906 375.964844 897.78125 377.941406 899.5 382.074219 L 900.960938 385.558594 C 901.175781 386.074219 900.921875 386.71875 900.40625 386.933594 C 899.886719 387.148438 899.242188 386.847656 898.984375 386.332031 L 897.519531 382.847656 C 896.230469 379.792969 892.703125 378.332031 889.648438 379.578125 L 885.175781 381.429688 C 884.660156 381.683594 884.058594 381.429688 883.839844 380.910156 Z M 898.082031 441.65625 L 904.449219 456.929688 C 904.664062 457.445312 904.402344 458.089844 903.886719 458.308594 C 903.371094 458.523438 902.726562 458.261719 902.511719 457.746094 L 896.144531 442.476562 C 895.929688 441.957031 896.1875 441.3125 896.703125 441.097656 C 897.261719 440.839844 897.867188 441.097656 898.082031 441.65625 Z M 910.511719 471.601562 L 932.539062 524.515625 C 932.753906 525.03125 932.496094 525.675781 931.980469 525.890625 C 931.464844 526.109375 930.820312 525.847656 930.605469 525.332031 L 908.578125 472.417969 C 908.363281 471.902344 908.621094 471.257812 909.136719 471.039062 C 909.695312 470.78125 910.296875 471.039062 910.511719 471.601562 Z M 967.386719 557.984375 L 946.996094 566.460938 L 932.625 555.75 L 969.96875 540.21875 Z M 951.597656 569.902344 L 948.929688 567.882812 L 967.042969 560.351562 L 966.570312 563.664062 Z M 869.945312 379.835938 L 889.820312 371.53125 C 894.9375 369.425781 900.789062 371.832031 902.898438 376.953125 L 909.609375 393.128906 L 870.804688 409.21875 L 864.265625 393.515625 C 862.070312 388.183594 864.609375 382.027344 869.945312 379.835938 Z M 875.277344 419.972656 L 914.082031 403.839844 L 969.882812 538.023438 L 931.035156 554.113281 Z M 871.621094 411.15625 L 910.425781 395.023438 L 913.265625 401.90625 L 874.460938 418.039062 Z M 889.046875 369.640625 L 869.125 377.902344 C 862.71875 380.566406 859.707031 387.921875 862.328125 394.335938 L 929.484375 555.878906 C 929.527344 556.007812 929.613281 556.09375 929.699219 556.179688 L 929.785156 556.265625 C 929.828125 556.265625 929.828125 556.308594 929.871094 556.308594 L 964.503906 582.078125 C 964.804688 582.292969 965.191406 582.335938 965.535156 582.207031 C 965.878906 582.078125 966.09375 581.777344 966.179688 581.390625 L 972.289062 538.667969 L 972.289062 538.496094 C 972.289062 538.367188 972.246094 538.238281 972.203125 538.152344 L 904.832031 376.136719 C 902.25 369.984375 895.199219 367.058594 889.046875 369.640625 " fill-opacity="1" fill-rule="nonzero"/></g><g clip-path="url(#5b0e0dfd36)"><g clip-path="url(#7a95b8a6c3)"><g transform="matrix(1, 0, 0, 1, 717, 57)"><g clip-path="url(#b4bbe610a6)"><g clip-path="url(#d5e961e6ac)"><g clip-path="url(#0f9c6440e2)"><path fill="#ecf2fe" d="M 0.472656 0.710938 L 55.464844 0.710938 L 55.464844 55.707031 L 0.472656 55.707031 Z M 0.472656 0.710938 " fill-opacity="1" fill-rule="nonzero"/></g></g></g></g></g></g><g clip-path="url(#1b953bc2bb)"><g clip-path="url(#efd243406c)"><g transform="matrix(1, 0, 0, 1, 266, 467)"><g clip-path="url(#e9cfd686fc)"><g clip-path="url(#f7ce444d40)"><g clip-path="url(#3c254590d5)"><path fill="#ecf2fe" d="M 0.621094 0.183594 L 34.648438 0.183594 L 34.648438 34.214844 L 0.621094 34.214844 Z M 0.621094 0.183594 " fill-opacity="1" fill-rule="nonzero"/></g></g></g></g></g></g></svg>